<svg width="1440" height="512" viewBox="0 0 1440 512" fill="none" xmlns="http://www.w3.org/2000/svg">
<path fill-rule="evenodd" clip-rule="evenodd" d="M0 509.331C1.45086 511.084 2.22871 512 2.22871 512H1439.49C1439.49 512 1440.64 240.941 1439.49 210.265C1439.1 200.036 1430.21 200.431 1401.32 201.715C1343.58 204.281 1205.93 210.398 896.603 142.305C764.851 113.301 666.874 86.7877 585.296 64.7121C379.537 9.03171 278.113 -18.4147 2.22868 13.6357C1.4829 13.7223 0.740013 13.8105 0 13.9002V509.331Z" fill="#F21212"/>
<path fill-rule="evenodd" clip-rule="evenodd" d="M0 509.331C1.45086 511.084 2.22871 512 2.22871 512H1439.49C1439.49 512 1440.64 240.941 1439.49 210.265C1439.1 200.036 1430.21 200.431 1401.32 201.715C1343.58 204.281 1205.93 210.398 896.603 142.305C764.851 113.301 666.874 86.7877 585.296 64.7121C379.537 9.03171 278.113 -18.4147 2.22868 13.6357C1.4829 13.7223 0.740013 13.8105 0 13.9002V509.331Z" fill="url(#paint0_linear)"/>
<defs>
<linearGradient id="paint0_linear" x1="636.145" y1="-12.3495" x2="636.145" y2="495.908" gradientUnits="userSpaceOnUse">
<stop stop-color="#E67828"/>
<stop offset="0.604167" stop-color="#8F0759" stop-opacity="0"/>
</linearGradient>
</defs>
</svg>
