<svg width="1442" height="762" viewBox="0 0 1442 762" fill="none" xmlns="http://www.w3.org/2000/svg">
<path fill-rule="evenodd" clip-rule="evenodd" d="M666 165.5C214 -98.5001 0.806946 33 0.806946 33V601.057C0.806946 601.057 363.397 476.714 831.306 610.082C1299.22 743.449 1441 762 1441 762C1441 762 1442.15 340.761 1441 310C1440.73 302.811 1422.94 305.509 1390.07 310.496C1282.3 326.847 1012.36 367.801 666 165.5Z" fill="#F21212"/>
<path fill-rule="evenodd" clip-rule="evenodd" d="M666 165.5C214 -98.5001 0.806946 33 0.806946 33V601.057C0.806946 601.057 363.397 476.714 831.306 610.082C1299.22 743.449 1441 762 1441 762C1441 762 1442.15 340.761 1441 310C1440.73 302.811 1422.94 305.509 1390.07 310.496C1282.3 326.847 1012.36 367.801 666 165.5Z" fill="url(#paint0_linear)"/>
<defs>
<linearGradient id="paint0_linear" x1="637.264" y1="-18.1239" x2="637.264" y2="738.058" gradientUnits="userSpaceOnUse">
<stop stop-color="#E67828"/>
<stop offset="0.604167" stop-color="#8F0759" stop-opacity="0"/>
</linearGradient>
</defs>
</svg>
